<?xml version="1.0" encoding="iso-8859-1"?>
<!-- Generator: Adobe Illustrator 21.0.2, SVG Export Plug-In . SVG Version: 6.00 Build 0)  -->
<svg version="1.1" id="Layer_1" xmlns="http://www.w3.org/2000/svg" xmlns:xlink="http://www.w3.org/1999/xlink" x="0px" y="0px"
	 viewBox="0 0 100.75 100.749" style="enable-background:new 0 0 100.75 100.749;" xml:space="preserve">
<g>
	<path d="M57.373,77.658l2.769,9.423c-0.744,0.876-1.211,1.994-1.211,3.23c0,2.769,2.256,5.021,5.029,5.021
		c2.459,0,4.499-1.789,4.919-4.135h9.711c0.286,2.498,2.389,4.452,4.963,4.452c2.771,0,5.025-2.252,5.025-5.02
		c0-2.772-2.254-5.028-5.025-5.028c-1.883,0-3.507,1.056-4.366,2.596h-10.7c-0.799-1.712-2.521-2.908-4.527-2.908
		c-0.406,0-0.795,0.061-1.173,0.152l-1.614-5.492h25.072v0.001c0.723,0,1.342-0.515,1.475-1.225l4.538-24.301
		c0.082-0.438-0.036-0.891-0.32-1.233c-0.285-0.344-0.708-0.542-1.154-0.542H52.168l-1.65-4.934
		c-0.205-0.611-0.777-1.024-1.422-1.024h-6.143c-0.829,0-1.5,0.671-1.5,1.5s0.671,1.5,1.5,1.5h5.063L57.373,77.658z M88.978,55.649
		L84.999,76.95h-24.7l-0.063-0.188l-0.128-0.434c-0.025-0.086-0.06-0.166-0.099-0.243l-6.838-20.436H88.978z M83.553,88.603
		c1.117,0,2.025,0.91,2.025,2.028c0,1.113-0.908,2.02-2.025,2.02c-1.114,0-2.021-0.906-2.021-2.02
		C81.532,89.513,82.438,88.603,83.553,88.603z M65.968,90.312c0,1.114-0.901,2.021-2.009,2.021c-1.119,0-2.029-0.907-2.029-2.021
		s0.91-2.021,2.029-2.021C65.066,88.29,65.968,89.197,65.968,90.312z"/>
	<path d="M42.618,69.669H10.717V23.684h70.481v21.512c0,0.829,0.672,1.5,1.5,1.5s1.5-0.671,1.5-1.5V5.849c0-0.829-0.672-1.5-1.5-1.5
		H9.217c-0.829,0-1.5,0.671-1.5,1.5v65.32c0,0.828,0.671,1.5,1.5,1.5h33.401c0.829,0,1.5-0.672,1.5-1.5S43.447,69.669,42.618,69.669
		z M81.198,7.349v13.335H10.717V7.349H81.198z"/>
	<path d="M29.318,15.197h5.986c0.829,0,1.5-0.671,1.5-1.5s-0.671-1.5-1.5-1.5h-5.986c-0.829,0-1.5,0.671-1.5,1.5
		S28.489,15.197,29.318,15.197z"/>
	<path d="M17.008,15.197h5.986c0.829,0,1.5-0.671,1.5-1.5s-0.671-1.5-1.5-1.5h-5.986c-0.829,0-1.5,0.671-1.5,1.5
		S16.179,15.197,17.008,15.197z"/>
</g>
</svg>
